<?xml version="1.0" standalone="no"?><!DOCTYPE svg PUBLIC "-//W3C//DTD SVG 1.1//EN" "http://www.w3.org/Graphics/SVG/1.1/DTD/svg11.dtd"><svg t="1607444549525" class="icon" viewBox="0 0 1024 1024" version="1.1" xmlns="http://www.w3.org/2000/svg" p-id="9188" xmlns:xlink="http://www.w3.org/1999/xlink" width="200" height="200"><defs><style type="text/css"></style></defs><path d="M527 890.2l-5.7-1.4c-1.9-0.5-47.2-11.7-100.8-48.5-31.4-21.5-59.3-47.4-83-77-29.6-36.9-52.6-79.7-68.4-127-46.1-138.4-28.4-463.2-27.6-477l1.6-28.3 26.1 11c0.7 0.3 69.2 28.9 112.5 28.9 69.2 0 135.6-28.5 136.3-28.8l7.7-3.4 7.8 3.2c0.7 0.3 75.8 30.6 132.5 29 29.6-0.8 92.2-21.4 113.9-29.3l25.3-9.2 1.5 26.9c0.8 14.9 19.9 365-22.5 477.7-16.3 43.3-39.7 83.5-69.5 119.4-23.8 28.6-51.6 54.6-82.8 77.2-53.2 38.6-97.6 54-99.5 54.6l-5.4 2zM280.3 189c-3.3 81.9-9.4 325.9 26.8 434.7 25.7 77.2 71 138.7 134.6 182.7 37.4 25.9 70.6 37.9 83.5 41.9 12.9-5.2 46.4-20 84.5-47.8 64.4-47 110.5-106.7 137.2-177.5 16.1-42.7 24.7-135.8 24.9-269 0.1-68.7-2.1-131.9-3.6-166-28.2 9.1-73 22.2-100.9 23-54.3 1.5-118.9-20.7-141-29-20.9 8.2-80.6 29-144.4 29-33 0-74.9-12.6-101.6-22z" fill="#d81e06" p-id="9189"></path><path d="M326.5 247s54.5 23 90.6 23c56.1 0 108.6-23 108.6-23s59.4 24.2 105.9 23c29.6-0.8 90.5-23 90.5-23s15.1 270.8-16 353.6c-51.3 136.2-180.4 180.3-180.4 180.3s-129.5-31.3-179.2-180.3c-34.2-102.7-20-353.6-20-353.6z" fill="#d81e06" p-id="9190"></path><path d="M722.1 247s-60.9 22.2-90.5 23c-46.5 1.3-105.9-23-105.9-23s-0.4 0.2-1 0.4v533.2c0.7 0.2 1 0.3 1 0.3s129.1-44 180.4-180.3c31.2-82.9 16-353.6 16-353.6z" fill="#d81e06" p-id="9191"></path><path d="M598.9 584.8h-0.1l-145.8-0.4c-17.3 0-32.8-9-41.5-24-8.7-15-8.7-32.9-0.1-47.9l72.9-127.2c8.7-15.1 24.3-24.2 41.7-24.2 17.4 0 33 9.1 41.7 24.2l72.9 127.5c8.6 15.1 8.5 33-0.2 48-8.7 15.1-24.2 24-41.5 24z m-159.7-56.4c-4.1 7.2-1.4 13.6 0 16 1.4 2.4 5.5 8 13.8 8l145.8 0.4h0.1c8.3 0 12.4-5.6 13.8-8 1.4-2.4 4.2-8.8 0.1-16l-72.9-127.5c-4.2-7.3-11.5-8.4-13.9-8.1-2.8 0-9.7 0.8-13.9 8.1l-72.9 127.1z" fill="#d81e06" p-id="9192"></path><path d="M526.9 488.9h-1.8c-8.4 0-15.1-6.8-15.1-15.1V440c0-8.4 6.8-15.1 15.1-15.1h1.8c8.4 0 15.1 6.8 15.1 15.1v33.8c0.1 8.3-6.7 15.1-15.1 15.1zM526.9 536.9h-1.8c-8.4 0-15.1-6.8-15.1-15.1V520c0-8.4 6.8-15.1 15.1-15.1h1.8c8.4 0 15.1 6.8 15.1 15.1v1.8c0.1 8.3-6.7 15.1-15.1 15.1z" fill="#d81e06" p-id="9193"></path></svg>