<?xml version="1.0" standalone="no"?><!DOCTYPE svg PUBLIC "-//W3C//DTD SVG 1.1//EN" "http://www.w3.org/Graphics/SVG/1.1/DTD/svg11.dtd"><svg t="1607445983402" class="icon" viewBox="0 0 1024 1024" version="1.1" xmlns="http://www.w3.org/2000/svg" p-id="40532" xmlns:xlink="http://www.w3.org/1999/xlink" width="200" height="200"><defs><style type="text/css"></style></defs><path d="M512 512m-400.695652 0a400.695652 400.695652 0 1 0 801.391304 0 400.695652 400.695652 0 1 0-801.391304 0Z" fill="#0B77E3" fill-opacity=".2" p-id="40533"></path><path d="M520.136348 571.024696l122.056348 122.056347a11.50887 11.50887 0 0 1 0 16.272696L520.136348 831.410087a11.50887 11.50887 0 0 1-16.272696 0L381.807304 709.353739a11.50887 11.50887 0 0 1 0-16.272696l122.056348-122.056347a11.50887 11.50887 0 0 1 16.272696 0z" fill="#FFFFFF" p-id="40534"></path><path d="M520.136348 571.024696a11.50887 11.50887 0 0 0-16.272696 0L381.807304 693.081043a11.50887 11.50887 0 0 0 0 16.272696l122.056348 122.056348a11.50887 11.50887 0 0 0 16.272696 0l122.056348-122.056348a11.50887 11.50887 0 0 0 0-16.272696L520.136348 571.024696z m15.738435-15.738435l122.056347 122.056348a33.769739 33.769739 0 0 1 0 47.749565L535.874783 847.148522a33.769739 33.769739 0 0 1-47.749566 0L366.06887 725.092174a33.769739 33.769739 0 0 1 0-47.749565l122.056347-122.056348a33.769739 33.769739 0 0 1 47.749566 0z" fill="#005CB9" p-id="40535"></path><path d="M330.918957 381.807304l122.056347 122.056348a11.50887 11.50887 0 0 1 0 16.272696L330.918957 642.192696a11.50887 11.50887 0 0 1-16.272696 0L192.589913 520.136348a11.50887 11.50887 0 0 1 0-16.272696l122.056348-122.056348a11.50887 11.50887 0 0 1 16.272696 0z" fill="#FFFFFF" p-id="40536"></path><path d="M346.657391 366.06887l122.056348 122.056347a33.769739 33.769739 0 0 1 0 47.749566L346.657391 657.93113a33.769739 33.769739 0 0 1-47.749565 0L176.851478 535.874783a33.769739 33.769739 0 0 1 0-47.749566l122.056348-122.056347a33.769739 33.769739 0 0 1 47.749565 0z m-15.738434 15.738434a11.50887 11.50887 0 0 0-16.272696 0L192.589913 503.863652a11.50887 11.50887 0 0 0 0 16.272696l122.056348 122.056348a11.50887 11.50887 0 0 0 16.272696 0l122.056347-122.056348a11.50887 11.50887 0 0 0 0-16.272696L330.918957 381.807304z" fill="#005CB9" p-id="40537"></path><path d="M709.353739 381.807304l122.056348 122.056348a11.50887 11.50887 0 0 1 0 16.272696L709.353739 642.192696a11.50887 11.50887 0 0 1-16.272696 0L571.024696 520.136348a11.50887 11.50887 0 0 1 0-16.272696l122.056347-122.056348a11.50887 11.50887 0 0 1 16.272696 0z" fill="#FFFFFF" p-id="40538"></path><path d="M725.092174 366.06887l122.056348 122.056347a33.769739 33.769739 0 0 1 0 47.749566L725.092174 657.93113a33.769739 33.769739 0 0 1-47.749565 0L555.286261 535.874783a33.769739 33.769739 0 0 1 0-47.749566l122.056348-122.056347a33.769739 33.769739 0 0 1 47.749565 0z m-15.738435 15.738434a11.50887 11.50887 0 0 0-16.272696 0L571.024696 503.863652a11.50887 11.50887 0 0 0 0 16.272696l122.056347 122.056348a11.50887 11.50887 0 0 0 16.272696 0l122.056348-122.056348a11.50887 11.50887 0 0 0 0-16.272696L709.353739 381.807304z" fill="#005CB9" p-id="40539"></path><path d="M520.136348 192.589913l122.056348 122.056348a11.50887 11.50887 0 0 1 0 16.272696L520.136348 452.975304a11.50887 11.50887 0 0 1-16.272696 0L381.807304 330.918957a11.50887 11.50887 0 0 1 0-16.272696l122.056348-122.056348a11.50887 11.50887 0 0 1 16.272696 0z" fill="#FFFFFF" p-id="40540"></path><path d="M535.874783 176.851478l122.056347 122.056348a33.769739 33.769739 0 0 1 0 47.749565L535.874783 468.713739a33.769739 33.769739 0 0 1-47.749566 0L366.06887 346.657391a33.769739 33.769739 0 0 1 0-47.749565l122.056347-122.056348a33.769739 33.769739 0 0 1 47.749566 0z m-15.738435 15.738435a11.50887 11.50887 0 0 0-16.272696 0L381.807304 314.646261a11.50887 11.50887 0 0 0 0 16.272696l122.056348 122.056347a11.50887 11.50887 0 0 0 16.272696 0l122.056348-122.056347a11.50887 11.50887 0 0 0 0-16.272696L520.136348 192.589913z" fill="#005CB9" p-id="40541"></path></svg>